<svg version="1.1" id="Layer_1" xmlns="http://www.w3.org/2000/svg" xmlns:xlink="http://www.w3.org/1999/xlink" x="0px" y="0px"
	 width="100%" viewBox="0 0 500 500" enable-background="new 0 0 500 500" xml:space="preserve">
<path fill="#000000" opacity="1.000000" stroke="none" 
	d="
M215.000000,501.000000 
	C143.333344,501.000000 72.166702,501.000000 1.000038,501.000000 
	C1.000026,334.333405 1.000026,167.666779 1.000013,1.000128 
	C167.666580,1.000085 334.333160,1.000085 500.999817,1.000043 
	C500.999878,167.666534 500.999878,334.333069 500.999939,500.999817 
	C405.833344,501.000000 310.666656,501.000000 215.000000,501.000000 
M69.079926,217.990829 
	C69.079926,217.990829 69.002541,217.886353 69.200050,217.743607 
	C69.200050,217.743607 69.060219,217.321381 69.367004,216.491699 
	C69.483940,215.616928 69.600868,214.742142 70.021904,213.339081 
	C70.076111,212.342072 70.130325,211.345047 70.520271,209.506302 
	C70.634949,208.306580 70.749619,207.106857 71.183113,205.360046 
	C71.217964,204.330063 71.252815,203.300095 71.576767,201.432129 
	C72.966988,192.410751 74.357208,183.389359 75.777138,174.175217 
	C71.242805,174.175217 67.651917,174.175217 63.489494,174.744461 
	C63.326530,175.722488 63.021683,176.700470 63.021404,177.678543 
	C63.014870,200.674133 63.035583,223.669739 63.079239,246.665283 
	C63.081276,247.737045 63.342083,248.808304 63.482372,249.879807 
	C63.759598,249.888458 64.036819,249.897110 64.314049,249.905777 
	C64.464569,249.216507 64.615089,248.527252 64.923820,247.063431 
	C65.643814,241.704254 66.363808,236.345093 67.427147,230.158997 
	C67.556175,229.889862 67.685196,229.620728 67.979820,229.255142 
	C67.979820,229.255142 68.040764,229.415741 68.040764,229.415741 
	C68.040764,229.415741 67.819221,229.333496 67.770653,228.324524 
	C67.788834,227.988312 67.807014,227.652084 67.965439,227.390793 
	C67.965439,227.390793 67.811363,227.394119 67.789177,227.185425 
	C67.789177,227.185425 67.657997,227.021576 67.962646,226.392319 
	C68.028648,225.239746 68.094650,224.087158 68.471436,222.178345 
	C68.606636,221.100006 68.741837,220.021652 69.078331,218.527710 
	C69.078331,218.527710 68.981781,218.076126 69.079926,217.990829 
M191.144135,346.703644 
	C193.859253,345.906311 196.594315,345.170776 199.286438,344.302185 
	C226.353500,335.569061 253.724594,334.373566 280.925995,342.812469 
	C307.875946,351.173401 334.704559,353.599701 362.022675,345.291809 
	C374.042755,341.636292 385.615051,336.992035 395.823700,329.512604 
	C414.825958,315.590485 420.748505,295.982971 417.588684,273.850769 
	C414.416443,251.631805 409.444275,229.663574 405.053467,207.626801 
	C401.518799,189.886948 390.223724,179.239609 373.092529,174.938751 
	C340.001862,166.631226 306.183868,163.169693 272.217255,161.629395 
	C221.609726,159.334473 171.338593,162.979980 121.481972,172.078918 
	C97.228874,176.505142 84.000885,189.376633 78.886688,213.576553 
	C78.059921,217.488754 77.183205,221.391800 76.438988,225.319809 
	C72.689522,245.109543 68.164665,264.772430 68.246315,285.114258 
	C68.338249,308.015900 78.519737,324.500916 98.748589,335.067078 
	C127.849739,350.267517 158.335907,354.400421 191.144135,346.703644 
M410.633972,180.101028 
	C414.467957,203.180237 418.301971,226.259445 422.297516,250.311081 
	C422.809937,248.845490 423.103729,248.397049 423.103943,247.948486 
	C423.115417,224.645630 423.245392,201.341248 423.001404,178.040817 
	C422.930695,171.287796 417.223724,174.254303 413.810211,173.902222 
	C409.711853,173.479492 409.852997,176.390823 410.633972,180.101028 
z"/>
<path fill="#E64E62" opacity="1.000000" stroke="none" 
	d="
M190.746674,346.818665 
	C158.335907,354.400421 127.849739,350.267517 98.748589,335.067078 
	C78.519737,324.500916 68.338249,308.015900 68.246315,285.114258 
	C68.164665,264.772430 72.689522,245.109543 76.438988,225.319809 
	C77.183205,221.391800 78.059921,217.488754 78.886688,213.576553 
	C84.000885,189.376633 97.228874,176.505142 121.481972,172.078918 
	C171.338593,162.979980 221.609726,159.334473 272.217255,161.629395 
	C306.183868,163.169693 340.001862,166.631226 373.092529,174.938751 
	C390.223724,179.239609 401.518799,189.886948 405.053467,207.626801 
	C409.444275,229.663574 414.416443,251.631805 417.588684,273.850769 
	C420.748505,295.982971 414.825958,315.590485 395.823700,329.512604 
	C385.615051,336.992035 374.042755,341.636292 362.022675,345.291809 
	C334.704559,353.599701 307.875946,351.173401 280.925995,342.812469 
	C253.724594,334.373566 226.353500,335.569061 199.286438,344.302185 
	C196.594315,345.170776 193.859253,345.906311 190.746674,346.818665 
z"/>
<path fill="#D15262" opacity="1.000000" stroke="none" 
	d="
M410.551819,179.688095 
	C409.852997,176.390823 409.711853,173.479492 413.810211,173.902222 
	C417.223724,174.254303 422.930695,171.287796 423.001404,178.040817 
	C423.245392,201.341248 423.115417,224.645630 423.103943,247.948486 
	C423.103729,248.397049 422.809937,248.845490 422.297516,250.311081 
	C418.301971,226.259445 414.467957,203.180237 410.551819,179.688095 
z"/>
<path fill="#D25263" opacity="1.000000" stroke="none" 
	d="
M68.877029,218.943314 
	C68.741837,220.021652 68.606636,221.100006 68.118362,222.745743 
	C67.729530,224.549286 67.693764,225.785431 67.657997,227.021576 
	C67.657997,227.021576 67.789177,227.185425 67.834000,227.276016 
	C67.878830,227.366608 67.825203,227.315872 67.825203,227.315872 
	C67.807014,227.652084 67.788834,227.988312 67.831757,228.838623 
	C67.892868,229.352737 67.814209,229.351593 67.814209,229.351593 
	C67.685196,229.620728 67.556175,229.889862 67.080673,230.695480 
	C65.859444,231.476700 64.984695,231.721451 64.086563,231.500198 
	C64.062469,212.081207 64.061745,193.128220 64.061028,174.175217 
	C67.651917,174.175217 71.242805,174.175217 75.777138,174.175217 
	C74.357208,183.389359 72.966988,192.410751 71.292862,202.049545 
	C70.960732,203.747025 70.912514,204.827072 70.864288,205.907135 
	C70.749619,207.106857 70.634949,208.306580 70.214615,210.110840 
	C69.845238,211.766052 69.781517,212.816711 69.717796,213.867371 
	C69.600868,214.742142 69.483940,215.616928 69.147339,216.988205 
	C68.927681,217.484711 69.002541,217.886353 69.002541,217.886353 
	C69.002541,217.886353 69.079926,217.990829 68.925201,218.111267 
	C68.630814,218.497574 68.666336,218.734772 68.877029,218.943314 
z"/>
<path fill="#5B1B25" opacity="1.000000" stroke="none" 
	d="
M63.775261,174.459839 
	C64.061745,193.128220 64.062469,212.081207 64.026016,231.965927 
	C64.247765,237.877762 64.506683,242.857864 64.765610,247.837982 
	C64.615089,248.527252 64.464569,249.216507 64.314049,249.905777 
	C64.036819,249.897110 63.759598,249.888458 63.482372,249.879807 
	C63.342083,248.808304 63.081276,247.737045 63.079239,246.665283 
	C63.035583,223.669739 63.014870,200.674133 63.021404,177.678543 
	C63.021683,176.700470 63.326530,175.722488 63.775261,174.459839 
z"/>
<path fill="#9F5360" opacity="1.000000" stroke="none" 
	d="
M64.844711,247.450714 
	C64.506683,242.857864 64.247765,237.877762 64.049393,232.431915 
	C64.984695,231.721451 65.859444,231.476700 66.908997,231.108948 
	C66.363808,236.345093 65.643814,241.704254 64.844711,247.450714 
z"/>
<path fill="#9F5360" opacity="1.000000" stroke="none" 
	d="
M67.810318,226.706940 
	C67.693764,225.785431 67.729530,224.549286 67.962967,223.123871 
	C68.094650,224.087158 68.028648,225.239746 67.810318,226.706940 
z"/>
<path fill="#9F5360" opacity="1.000000" stroke="none" 
	d="
M71.023705,205.633591 
	C70.912514,204.827072 70.960732,203.747025 71.148315,202.468536 
	C71.252815,203.300095 71.217964,204.330063 71.023705,205.633591 
z"/>
<path fill="#9F5360" opacity="1.000000" stroke="none" 
	d="
M69.869850,213.603226 
	C69.781517,212.816711 69.845238,211.766052 70.046745,210.531708 
	C70.130325,211.345047 70.076111,212.342072 69.869850,213.603226 
z"/>
<path fill="#9F5360" opacity="1.000000" stroke="none" 
	d="
M69.101295,217.814972 
	C69.002541,217.886353 68.927681,217.484711 68.993950,217.403046 
	C69.060219,217.321381 69.200050,217.743607 69.101295,217.814972 
z"/>
<path fill="#9F5360" opacity="1.000000" stroke="none" 
	d="
M68.977676,218.735504 
	C68.666336,218.734772 68.630814,218.497574 68.876129,218.153931 
	C68.981781,218.076126 69.078331,218.527710 68.977676,218.735504 
z"/>
<path fill="#9F5360" opacity="1.000000" stroke="none" 
	d="
M67.895325,227.353333 
	C67.825203,227.315872 67.878830,227.366608 67.845093,227.380371 
	C67.811363,227.394119 67.965439,227.390793 67.895325,227.353333 
z"/>
<path fill="#9F5360" opacity="1.000000" stroke="none" 
	d="
M67.897018,229.303375 
	C67.814209,229.351593 67.892868,229.352737 67.856049,229.343109 
	C67.819221,229.333496 68.040764,229.415741 68.040764,229.415741 
	C68.040764,229.415741 67.979820,229.255142 67.897018,229.303375 
z"/>
</svg>